<svg width="138" height="36" viewBox="0 0 138 36" fill="none" xmlns="http://www.w3.org/2000/svg">
<path fill-rule="evenodd" clip-rule="evenodd" d="M7.71476 8.59317H20.4963V1.18395H0V34.9328H7.71476V22.5459H20.2544V15.1113H7.71476V8.59317ZM28.453 8.68229C29.6496 8.68229 30.6681 8.26218 31.521 7.40922C32.374 6.55627 32.7941 5.52509 32.7941 4.34114C32.7941 3.14446 32.374 2.12601 31.521 1.27306C30.6681 0.420111 29.6369 0 28.453 0C27.2563 0 26.2378 0.420111 25.3849 1.27306C24.5319 2.12601 24.1118 3.14446 24.1118 4.34114C24.1118 5.53782 24.5319 6.55627 25.3849 7.40922C26.2378 8.26218 27.2563 8.68229 28.453 8.68229ZM24.8375 10.8083V34.9328H32.0685V10.8083H24.8375ZM57.9498 12.7815C56.2312 11.012 54.0797 10.1336 51.5081 10.1336V10.1208C48.3509 10.1208 46.0594 11.1011 44.6081 13.0616V10.7956H37.3771V34.9201H44.6081V21.7566C44.6081 20.1144 45.0155 18.8795 45.8175 18.0393C46.6196 17.1991 47.7144 16.779 49.102 16.779C50.3242 16.779 51.3299 17.1609 52.1192 17.912C52.9085 18.6758 53.3031 19.7579 53.3031 21.171V34.9201H60.5341V20.1144C60.5341 16.9954 59.6684 14.5511 57.9498 12.7815ZM90.2347 1.15849H83.0037V13.0744C81.2978 11.1138 78.9044 10.1336 75.8109 10.1336C72.6282 10.1336 69.9166 11.3685 67.6633 13.8255C65.41 16.2825 64.2897 19.2996 64.2897 22.8642C64.2897 26.4415 65.41 29.3314 67.6633 31.7884C69.9039 34.2454 72.6282 35.4803 75.8109 35.4803C78.9044 35.4803 81.2978 34.5 83.0037 32.5395V34.9328H90.2347V1.15849ZM107.803 29.1404C104.773 29.1404 102.851 28.0201 102.011 25.7668L102.023 25.7541H119.146C119.337 24.8629 119.439 23.8954 119.439 22.8642C119.439 19.236 118.268 16.2061 115.938 13.7745C113.608 11.343 110.68 10.1336 107.179 10.1336C103.411 10.1336 100.33 11.343 97.9367 13.7745C95.5434 16.1934 94.3467 19.236 94.3467 22.8642C94.3467 26.5306 95.5561 29.5732 97.9876 31.9793C100.419 34.3854 103.665 35.5948 107.714 35.5948C112.348 35.5948 115.849 33.9399 118.229 30.6299L112.437 27.3072C111.304 28.5293 109.763 29.1404 107.803 29.1404ZM112.246 20.369H101.87C102.583 17.8356 104.327 16.5625 107.128 16.5625C109.84 16.5625 111.533 17.8229 112.246 20.369ZM133.493 11.5594C132.131 12.3869 131.215 13.5708 130.769 15.1113V15.0858V10.7956H123.538V34.9201H130.769V24.0227C130.769 21.833 131.533 20.2926 133.061 19.4142C134.588 18.5358 136.23 18.2303 138 18.5231V10.3245C136.358 10.3245 134.856 10.7446 133.493 11.5594ZM80.0366 17.8302C78.5981 17.8302 77.8724 18.5049 77.1468 19.8798H77.1213C76.3957 18.5176 75.6828 17.8302 74.2315 17.8302C72.6401 17.8302 71.3416 19.0523 71.3416 20.5673C71.3416 23.3051 74.219 26.0304 77.0964 28.7556L77.1341 28.7913C80.0366 26.0542 82.9265 23.3043 82.9265 20.5673C82.9265 19.0523 81.6407 17.8302 80.0366 17.8302Z" fill="#0088FF"/>
</svg>
